# xmcd
#
# Track frame offsets:
#	150
#	11034
#	21307
#	32516
#	43951
#	56228
#	67420
#	76766
#	86911
#	97299
#	106378
#	116669
#	126234
#	138572
#	150911
#	162222
#	175177
#	187838
#	200077
#	211806
#	223312
#	234338
#	246934
#	257918
#	268849
#	278635
#
# Disc length: 3834 seconds
#
# Revision: 0
# Processed by: cddbd v1.5.2PL0 Copyright (c) Steve Scherf et al.
# Submitted via: EasyCDDAExtractor 15.3.0.1
#
DISCID=890ef81a
DTITLE=Various Artist - Country Music Ladies Of The 1950s
DYEAR=1900
DGENRE=
TTITLE0=Duncan Louise - Wherever You Are
TTITLE1=Duncan Louise - Gossip
TTITLE2=Duncan Louise - Already Married To You In My Heart
TTITLE3=Duncan Louise - Too Young To Settle Down
TTITLE4=Coker Alvadean - There's A Tear In The Eye Of The Man In The Moon
TTITLE5=Coker Alvadean - Insufficient Love
TTITLE6=Coker Alvadean - Do Dee Oodle De Do I'm In Love
TTITLE7=Coker Alvadean - We're Gonna Bop
TTITLE8=Bowes Margie - Poor Old Heartsick Me
TTITLE9=Bowes Margie - Violets And Cheap Perfume
TTITLE10=Bowes Margie - Are You Teasing Me
TTITLE11=Bowes Margie - Won'tcha Come Back To Me
TTITLE12=Van Harvie June - My Sins Of Yesterday
TTITLE13=Van Harvie June - I'm Just Not That Kind
TTITLE14=Van Harvie June - Mama Don't Chase My Love Away
TTITLE15=Van Harvie June - Don't Offer Me The Stars
TTITLE16=Carter Helen - No No It's Not So
TTITLE17=Carter Helen - What's To Become Of Me Now
TTITLE18=Carter Helen - Set The Wedding
TTITLE19=Carter Helen - You're Right But I Wish You Were Wrong
TTITLE20=Bradshaw Carolyn - Man On The Loose
TTITLE21=Bradshaw Carolyn - Baby Then You're Catching On
TTITLE22=Bradshaw Carolyn - This Is The Night
TTITLE23=Bradshaw Carolyn - Flower Of The Rio
TTITLE24=Lorrie Myrna - Underway
TTITLE25=Lorrie Myrna - Just Released
EXTD=
EXTT0=
EXTT1=
EXTT2=
EXTT3=
EXTT4=
EXTT5=
EXTT6=
EXTT7=
EXTT8=
EXTT9=
EXTT10=
EXTT11=
EXTT12=
EXTT13=
EXTT14=
EXTT15=
EXTT16=
EXTT17=
EXTT18=
EXTT19=
EXTT20=
EXTT21=
EXTT22=
EXTT23=
EXTT24=
EXTT25=
PLAYORDER=
